<svg xmlns="http://www.w3.org/2000/svg" width="7.473" height="7.471" viewBox="0 0 7.473 7.471">
  <path id="Icon_awesome-instagram" data-name="Icon awesome-instagram" d="M3.732,4.058A1.915,1.915,0,1,0,5.647,5.973,1.912,1.912,0,0,0,3.732,4.058Zm0,3.161A1.245,1.245,0,1,1,4.977,5.973,1.248,1.248,0,0,1,3.732,7.218ZM6.172,3.979a.447.447,0,1,1-.447-.447A.446.446,0,0,1,6.172,3.979Zm1.269.453a2.211,2.211,0,0,0-.6-1.565,2.226,2.226,0,0,0-1.565-.6c-.617-.035-2.466-.035-3.082,0a2.222,2.222,0,0,0-1.565.6,2.218,2.218,0,0,0-.6,1.565c-.035.617-.035,2.466,0,3.082a2.211,2.211,0,0,0,.6,1.565,2.228,2.228,0,0,0,1.565.6c.617.035,2.466.035,3.082,0a2.211,2.211,0,0,0,1.565-.6,2.226,2.226,0,0,0,.6-1.565c.035-.617.035-2.464,0-3.081Zm-.8,3.743a1.261,1.261,0,0,1-.71.71,8.234,8.234,0,0,1-2.2.15,8.3,8.3,0,0,1-2.2-.15,1.261,1.261,0,0,1-.71-.71,8.234,8.234,0,0,1-.15-2.2,8.3,8.3,0,0,1,.15-2.2,1.261,1.261,0,0,1,.71-.71,8.234,8.234,0,0,1,2.2-.15,8.3,8.3,0,0,1,2.2.15,1.261,1.261,0,0,1,.71.71,8.234,8.234,0,0,1,.15,2.2A8.229,8.229,0,0,1,6.644,8.175Z" transform="translate(0.005 -2.238)" fill="#e5e5e5"/>
</svg>
