<svg xmlns="http://www.w3.org/2000/svg" width="36" height="27" viewBox="0 0 36 27">
  <path id="Icon_material-more" data-name="Icon material-more" d="M33,4.5H10.5A2.823,2.823,0,0,0,8.115,5.82L0,18,8.115,30.165A3.022,3.022,0,0,0,10.6,31.5H33a3.009,3.009,0,0,0,3-3V7.5A3.009,3.009,0,0,0,33,4.5ZM13.5,20.25A2.25,2.25,0,1,1,15.75,18,2.247,2.247,0,0,1,13.5,20.25Zm7.5,0A2.25,2.25,0,1,1,23.25,18,2.247,2.247,0,0,1,21,20.25Zm7.5,0A2.25,2.25,0,1,1,30.75,18,2.247,2.247,0,0,1,28.5,20.25Z" transform="translate(0 -4.5)" fill="#68a0a2"/>
</svg>
