<svg xmlns="http://www.w3.org/2000/svg" width="7.789" height="7.393" viewBox="0 0 7.789 7.393">
  <path id="Icon_awesome-facebook" data-name="Icon awesome-facebook" d="M8.351,4.281A3.809,3.809,0,0,0,4.457.563,3.809,3.809,0,0,0,.563,4.281,3.777,3.777,0,0,0,3.848,7.955v-2.6H2.859V4.281h.989V3.462A1.343,1.343,0,0,1,5.319,2.015a6.268,6.268,0,0,1,.872.073V3H5.7a.55.55,0,0,0-.635.581v.7h1.08L5.973,5.356H5.065v2.6A3.777,3.777,0,0,0,8.351,4.281Z" transform="translate(-0.563 -0.563)" fill="#e5e5e5"/>
</svg>
