<svg xmlns="http://www.w3.org/2000/svg" width="62.967" height="68.266" viewBox="0 0 62.967 68.266">
  <path id="Icon_ionic-ios-thumbs-up" data-name="Icon ionic-ios-thumbs-up" d="M64.741,59.278a6.66,6.66,0,0,0,2.74-5.152,7.2,7.2,0,0,0-1.788-4.774c-.1-.2-.18-.377-.262-.558l-.033-.18a2.142,2.142,0,0,1,.328-1.641,7.192,7.192,0,0,0,.952-4.216,4.985,4.985,0,0,0-1.591-3.806,3.128,3.128,0,0,1-.673-3,6.327,6.327,0,0,0-1.345-6.2c-1.723-1.936-3.33-2.166-7.613-1.92C52.5,28.008,46.35,28.959,42.3,29.6c-1.657.263-3.1.492-3.544.525-2.084.213-2.494,0-2.691-.8a5.319,5.319,0,0,1,.8-2.133,35.184,35.184,0,0,0,2.379-5.873c1.657-5.447,1.477-11.353-.443-14.8-.9-1.624-2.428-3.134-4.315-3.134s-3.823.394-4.577,1.3c-.558.656-.377,1.9-1.017,4.4a47.836,47.836,0,0,1-1.969,6.891c-1.23,2.723-6.513,7.4-9.352,9.909-.673.591-1.247,1.1-1.657,1.493a33.817,33.817,0,0,0-4.184,5.365,28.558,28.558,0,0,1-2.248,3.035,5.927,5.927,0,0,1-3.659,1.788,1.316,1.316,0,0,0-1.312,1.313V65.037A1.358,1.358,0,0,0,5.876,66.4,25.854,25.854,0,0,1,16.77,68.334a28.353,28.353,0,0,0,7.612,1.985,157.586,157.586,0,0,0,18.473,1.329,81.763,81.763,0,0,0,9.286-.64c5.086-.591,10.533-1.772,12.338-6.07A4.633,4.633,0,0,0,64.4,61.05a1.29,1.29,0,0,1-.131-.427A1.39,1.39,0,0,1,64.741,59.278Z" transform="translate(-4.514 -3.382)" fill="#e5e5e5"/>
</svg>
