<svg xmlns="http://www.w3.org/2000/svg" width="7.789" height="6.326" viewBox="0 0 7.789 6.326">
  <path id="Icon_awesome-twitter" data-name="Icon awesome-twitter" d="M6.988,4.957c0,.069,0,.138,0,.208A4.511,4.511,0,0,1,2.451,9.707,4.511,4.511,0,0,1,0,8.99a3.3,3.3,0,0,0,.385.02,3.2,3.2,0,0,0,1.982-.682A1.6,1.6,0,0,1,.875,7.221a2.013,2.013,0,0,0,.3.025,1.688,1.688,0,0,0,.42-.054A1.6,1.6,0,0,1,.316,5.624V5.6a1.608,1.608,0,0,0,.722.2A1.6,1.6,0,0,1,.544,3.672a4.537,4.537,0,0,0,3.291,1.67,1.8,1.8,0,0,1-.04-.366A1.6,1.6,0,0,1,6.558,3.885,3.143,3.143,0,0,0,7.571,3.5a1.592,1.592,0,0,1-.7.88,3.2,3.2,0,0,0,.919-.247,3.431,3.431,0,0,1-.8.825Z" transform="translate(0 -3.381)" fill="#e5e5e5"/>
</svg>
