<?xml version="1.0" encoding="UTF-8"?>
<svg id="_图层_2" data-name="图层 2" xmlns="http://www.w3.org/2000/svg" xmlns:xlink="http://www.w3.org/1999/xlink" viewBox="0 0 533.14 476">
  <defs>
    <style>
      .cls-1 {
        letter-spacing: -.07em;
      }

      .cls-2, .cls-3, .cls-4, .cls-5, .cls-6 {
        fill: #fff;
      }

      .cls-3 {
        fill-rule: evenodd;
      }

      .cls-7 {
        fill: url(#_未命名的渐变_85);
      }

      .cls-8 {
        fill: #9bc0a8;
      }

      .cls-4 {
        font-family: AdobeSongStd-Light-GBpc-EUC-H, 'Adobe Song Std';
        font-size: 6.53px;
        font-weight: 300;
      }

      .cls-9 {
        fill: none;
        stroke: #fff;
        stroke-miterlimit: 10;
        stroke-width: .5px;
      }

      .cls-5 {
        font-size: 18px;
      }

      .cls-5, .cls-10 {
        font-family: ArialRoundedMTBold, 'Arial Rounded MT Bold';
      }

      .cls-11, .cls-10 {
        fill: #104e54;
      }

      .cls-6 {
        font-family: CooperBlack, 'Cooper Black';
        font-size: 48px;
      }

      .cls-10 {
        font-size: 14px;
      }

      .cls-12 {
        letter-spacing: -.12em;
      }

      .cls-13 {
        fill: #33726b;
      }

      .cls-14 {
        letter-spacing: -.02em;
      }
    </style>
    <radialGradient id="_未命名的渐变_85" data-name="未命名的渐变 85" cx="266.57" cy="95.75" fx="266.57" fy="95.75" r="266.57" gradientTransform="translate(0 152.51) scale(1 .89)" gradientUnits="userSpaceOnUse">
      <stop offset="0" stop-color="#fff"/>
      <stop offset="1" stop-color="#9bc0a8"/>
    </radialGradient>
  </defs>
  <g id="_图层_1-2" data-name="图层 1">
    <rect class="cls-7" x="0" y="0" width="533.14" height="476" rx="24.08" ry="24.08"/>
    <path class="cls-13" d="m399.39,259.5c0,26.7-7.78,51.58-21.2,72.5h-226.6c-13.42-20.92-21.2-45.8-21.2-72.5,0-3.02.1-6.02.3-9,.11-1.68.25-3.34.44-5,6.99-67.7,64.2-120.5,133.76-120.5s126.77,52.8,133.76,120.5c.19,1.66.33,3.32.44,5,.2,2.98.3,5.98.3,9Z"/>
    <polygon class="cls-13" points="123.89 281.04 123.89 359 52.89 359 76.87 320.15 64.88 300.71 52.89 281.28 52.89 281.04 123.89 281.04"/>
    <polygon class="cls-13" points="452.89 320.08 465.39 339.52 477.89 358.95 477.89 359 403.89 359 403.89 281.04 477.89 281.04 477.89 281.23 452.89 320.08"/>
    <rect class="cls-11" x="99.39" y="254.04" width="331" height="77.96"/>
    <polygon class="cls-8" points="403.89 359 403.89 345.5 403.89 332 409.89 332 429.89 332 411.89 351 403.89 359"/>
    <polygon class="cls-8" points="99.89 332 111.89 332 123.89 332 123.89 338.23 123.89 359 107 340.31 99.89 332"/>
    <text class="cls-6" transform="translate(182.16 310.96)"><tspan x="0" y="0">D</tspan><tspan class="cls-1" x="38.51" y="0">r</tspan><tspan x="60.87" y="0">.</tspan><tspan class="cls-14" x="75.26" y="0">N</tspan><tspan x="114.07" y="0">ut</tspan></text>
    <g>
      <path class="cls-3" d="m264.94,185.57c-.71.45-1.06.85-1.48,1.24-.87.82-2.38,2.23-4.07,2.07-.24-.02-.41-.05-.65-.15-.81-.31-1.22-1.07-3.01-2.14-.49-.29-2.85-1.66-6.06-2.06-1.18-.15-3.06-.24-5.36.28-.32.05-.63.11-.96.18-.64.13-1.26.26-1.86.41-1.75.57-3.34,1.29-4.73,2.21-2.66,1.76-4.51,4.33-5.48,7.76-.15.53-.15,1.09-.28,1.64v.48c-.18.84-.06,2.3.14,3.07.12.48.1.89.25,1.36.54,1.72,1.24,2.99,2.2,4.26.4.53,1.39,1.61,2.03,1.83.17.1,1.55-.05,1.94.03,1.46.32,2.81.52,4.05,1.02,2.08.84,3.98,1.89,5.72,3.09.43.3.84.69,1.26.99.62.45,1.17.9,1.71,1.43.15.13.3.26.45.4.75.97,1.53,1.91,2.2,2.98.63,1.02.97,2.19,1.39,3.42.3.89.42,1.91.66,2.91.03.46.06.93.09,1.4.1.42.1,1.12.05,1.52-.09.66.08,2.18-.19,2.59v.24s-.04,0-.04,0c-.1-.28,0-.62-.08-.96-.17-.73-.11-1.49-.29-2.23-.39-1.58-.6-3.19-1.19-4.58-.47-1.11-.9-2.28-1.51-3.26-2.52-4.03-5.54-6.66-10.16-8.61-1.71-.72-4.34-1.74-6.32-1.61-2.94.19-5.16,1.2-7.32,2.14-1.42.62-2.79,1.27-4.08,2.05-.7.42-1.43.81-2.14,1.25-.44.27-.92.65-1.45.8-.36.1-.72-.08-.93-.16-.62-.23-1.06-.55-1.54-.91-.17-.12-.27-.32-.45-.44.05-1.68-.25-3.11-.75-4.38-.15-.39-.43-.82-.53-1.23-.39.12-.64.46-.93.68-1.07.8-1.69,2.11-2.42,3.24-.67.04-1.23.35-1.74.56-.85.36-1.64.67-2.34,1.17-.44.32-.65.8-1.01,1.2-.36.41-.75.79-1.09,1.24-.23.3-.58.54-.81.84-.6.79-1.28,1.49-1.85,2.32-.54.78-.91,1.54-1.16,2.64-.1.42-.06,1.13.17,1.35.12.31,1.46.72,1.83.91.8.41,1.38.92,2.39,1.15.57.13,1.5-.16,1.9-.29,1.04-.33,2.03-.4,3.12-.69.5-.13,1.25-.33,1.9-.17,2.8.69,5.22,2.99,6.9,4.84.8.88,1.81,1.7,2.44,2.74.12-.17.15-1.05.08-1.36-.21-.9-.35-1.77-.62-2.55-.07-.2-.05-.37-.16-.52v-.16c.45.29.69.85.98,1.31.5.8.75,1.79,1.02,2.83.14.51,0,1.01.13,1.55.08.37.14,1.49.05,1.91-.1.46,0,.98-.12,1.48-.08.48-.16.96-.24,1.44h-.04s0,.04,0,.04c-.66,0-1.37.13-1.98.13-.57,0-1.65.03-2.15.13-.8.16-1.65.04-2.39.21-.31.01-.62.03-.93.04-1.11.28-2.37.25-3.24.73.08.57,1.8.56,2.43.71,1.38.32,2.91.12,4.29.42.4.09.82,0,1.17.08.61.01,1.21.02,1.82.03.56.13,1.3-.06,1.9.07.26.06.7-.04,1.01.04.33.07.84-.05,1.22.03.56.13,1.48.07,2.07.07h2.35c.53.11,1.3.02,1.9.02l3.77-.02c1.08-.02,2.16-.04,3.24-.05.68,0,1.53.06,2.02-.05.44-.1,1.02.04,1.42-.05h1.17c.9-.22,2.03.02,2.92-.18.61-.02,1.21-.03,1.82-.05.52-.12,1.14,0,1.7-.13.48-.11,1.02,0,1.54-.13.27-.06.63-.01.93-.08,1.27-.3,2.74-.23,3.72-.77-.07-.58-1.7-.56-2.31-.71-1.3-.31-2.84-.19-4.21-.42-.35-.06-1,.02-1.42-.07-.5-.11-1.04.02-1.5-.07-.24-.05-.59.07-.77-.04h-.85s0-.08,0-.08c1.48-.02,3.11-.43,4.29-.81,4.09-1.34,7.04-3.25,8.64-7.01.34-.8.51-1.72.76-2.59.04-.27.08-.53.12-.8.14-.5.22-1.1.32-1.67-.03-.01-.06-.03-.09-.05-.53-.28-1.18-.6-1.47-.92-.29-.16-.59-.31-.88-.47.02-.04.04-.08.06-.12-.18-.09-.35-.19-.53-.28,0-.05,0-.1,0-.15-.16-.08-.31-.17-.47-.25.02-.04.04-.08.06-.12-.16-.08-.31-.16-.47-.25.02-.04.04-.08.06-.12-.1-.05-.2-.1-.29-.16.02-.04.04-.08.06-.12-.14-.22-.37-.22-.53-.43,0,0-.11-.36-.11-.36-.12-.06-.24-.12-.35-.19.02-.04.04-.08.06-.12-.2-.33-.51-.48-.69-.81-.03-.05-.02-.27-.05-.32-.11-.2-.42-.37-.52-.57-.03-.06.03-.23,0-.29-.06-.14-.22-.16-.29-.3-.04-.08-.07-.43-.11-.5-.08-.04-.16-.08-.24-.12.04-.03.08-.06.12-.08-.19-.38-.38-.76-.5-1.16-.12-.38-.05-.94-.38-1.25.03-.06.06-.12.09-.17-.22-.36-.13-.8-.17-1.21-.03-.31-.19-.69-.21-1.01.04-.08.08-.15.13-.23,0-.09-.15-.16-.17-.24-.07-.29.19-.72.09-1-.08-.04-.16-.08-.23-.12-.06-.17.2-.44.19-.49,0-.05-.17-.19-.17-.24.04-.08.08-.15.13-.23,0-.22-.12-.93-.18-1.06-.2-.39-.65-.62-.9-1-.52-.78-1.01-2.98-.73-3.81-.06-.03-.12-.06-.18-.09.01-.02.02-.04.03-.06.02,0,.04.02.06.03.02-.11.03-.16.1-.32-.06-.03-.12-.06-.18-.09.33-.64.12-1.27.17-1.85.06-.76.36-1.51.54-2.25.14-.25.27-.5.41-.75.65-1.19,1.23-1.84,2.01-2.44.31-.29.61-.57.92-.86.38-.18.84-.36,1.21-.55.22-.12.37-.34.61-.42.25-.09.61-.04.84-.15.11-.05.39-.37.61-.42.12-.03.34.06.38.13.24-.05.46-.25.7-.3.93-.23,1.94-.25,2.88-.42.19-.86-.2-2.05-.09-3.03.04-.38.31-.52.32-.87-.04-.02-.08-.04-.12-.06.11-.09.23-.18.34-.28.3-.82,1.06-1.79.83-2.02-.05-.05-.12-.05-.22-.02.23-.45.45-.81.57-.9.06-.05.19,0,.24-.02.22-.1.21-.33.43-.52.13-.11.46-.18.61-.28.14-.1.22-.27.34-.39-.27.11-.67.3-1.12.59Zm-28.26,50.97c-.72.16-2.12.22-2.35.81-1.59.02-3.19.04-4.78.06-.46,0-1.59.17-1.94.05-.07-.03-.04,0-.08-.04.52-.34.92-.87,1.33-1.32,1.36-1.52,2.56-3.13,3.18-5.4.17-.62.16-1.28.15-2.03v-.92c.16-.76.17-1.52.39-2.2.39-1.18,1.01-2.21,1.69-3.12.29-.39.76-.66,1.05-1.04h.08s0,.04,0,.04c-.42.32-1,1.61-1.25,2.16-.42.94-.72,1.79-1,2.92-.24.97.01,2.25.26,2.99.65,1.98,1.27,3.28,2.37,4.78.39.53,1.4,1.89,1.99,2.1-.15.24-.77.09-1.09.16Z"/>
      <path class="cls-3" d="m329.96,221.26c-.26-1.1-.64-1.85-1.18-2.63-.58-.83-1.26-1.52-1.87-2.31-.23-.3-.58-.54-.81-.83-.34-.44-.73-.82-1.1-1.23-.36-.4-.57-.88-1.02-1.19-.71-.49-1.5-.79-2.35-1.15-.51-.21-1.07-.52-1.74-.55-.74-1.12-1.36-2.43-2.44-3.22-.29-.21-.55-.55-.93-.67-.1.42-.37.85-.52,1.24-.49,1.28-.78,2.71-.71,4.39-.18.12-.28.32-.44.44-.48.36-.91.69-1.54.92-.21.08-.57.26-.93.16-.54-.15-1.02-.52-1.46-.79-.71-.43-1.45-.81-2.15-1.23-1.29-.77-2.67-1.4-4.1-2.02-2.17-.93-4.4-1.91-7.34-2.08-1.99-.12-4.61.92-6.31,1.66-4.6,1.99-7.6,4.64-10.09,8.69-.61.99-1.03,2.17-1.49,3.28-.58,1.4-.78,3.01-1.16,4.59-.18.75-.11,1.5-.27,2.23-.08.34.02.68-.08.96h-.04s0-.24,0-.24c-.27-.41-.11-1.93-.21-2.59-.06-.4-.06-1.09.03-1.52.03-.47.05-.93.08-1.4.23-1,.34-2.03.64-2.91.41-1.24.74-2.41,1.36-3.44.66-1.08,1.43-2.02,2.17-3,.15-.13.3-.27.44-.4.53-.53,1.07-.99,1.69-1.44.42-.31.82-.7,1.25-1,1.73-1.21,3.62-2.28,5.7-3.13,1.24-.51,2.58-.72,4.05-1.05.39-.09,1.77.06,1.94-.05.64-.22,1.62-1.31,2.02-1.84.95-1.28,1.64-2.55,2.17-4.28.14-.46.12-.87.24-1.36.19-.77.3-2.24.11-3.07v-.48c-.13-.54-.14-1.1-.29-1.63-1-3.42-2.86-5.97-5.54-7.71-1.4-.91-3-1.62-4.75-2.17-.6-.14-1.22-.27-1.86-.39-.33-.06-.65-.12-.96-.17-2.31-.5-4.19-.39-5.36-.23-3.21.43-5.55,1.81-6.04,2.11-1.78,1.08-2.19,1.84-2.99,2.16-.25.1-.41.13-.65.15-1.68.18-3.2-1.22-4.08-2.03-.42-.39-.78-.78-1.49-1.23-.45-.28-.85-.47-1.12-.58.12.12.21.29.35.38.14.1.48.17.61.27.22.18.21.41.44.51.05.02.18-.02.24.02.12.09.34.45.57.9-.1-.03-.17-.03-.21.02-.22.24.55,1.2.85,2.02.11.1.23.19.34.28-.04.02-.08.04-.12.06.02.35.29.49.33.87.12.98-.27,2.17-.07,3.03.94.17,1.95.18,2.88.4.23.05.46.26.7.3.04-.07.26-.16.38-.13.22.05.5.37.61.42.23.12.59.06.84.15.24.08.39.3.61.42.37.19.84.37,1.22.55.31.28.62.57.93.85.79.6,1.37,1.24,2.03,2.43.14.25.28.5.42.75.18.74.49,1.49.56,2.25.05.58-.15,1.21.19,1.85-.06.03-.12.06-.18.09.07.16.08.21.1.32.02,0,.04-.02.06-.03.01.02.02.04.03.06-.06.03-.12.06-.18.09.29.83-.18,3.03-.7,3.82-.25.38-.69.61-.89,1-.06.14-.18.85-.17,1.07.04.08.09.15.13.23,0,.05-.16.19-.17.24,0,.06.26.32.2.49-.08.04-.16.08-.23.13-.1.28.16.7.1,1-.02.08-.17.15-.17.24.04.08.09.15.13.23-.02.31-.17.7-.2,1.01-.04.42.05.85-.16,1.21.03.06.06.12.1.17-.33.31-.26.87-.37,1.25-.12.4-.31.79-.5,1.17.04.03.08.06.12.08-.08.04-.16.08-.23.13-.04.07-.06.42-.1.5-.06.14-.23.16-.29.3-.03.06.04.24.01.29-.1.2-.41.38-.52.58-.03.05-.02.28-.05.32-.18.34-.49.49-.69.82.02.04.04.08.06.12-.12.06-.23.13-.35.19,0,0-.1.35-.11.36-.16.21-.39.21-.52.43.02.04.04.08.06.12-.1.05-.2.11-.29.16.02.04.04.08.06.12-.16.08-.31.17-.47.25.02.04.04.08.06.12-.16.08-.31.17-.47.25,0,.05,0,.1,0,.15-.18.09-.35.19-.53.28.02.04.04.08.06.12-.29.16-.59.31-.88.47-.28.32-.93.65-1.46.93-.03.01-.06.03-.09.05.1.56.19,1.16.33,1.66.04.27.08.53.12.8.26.88.43,1.79.78,2.59,1.63,3.75,4.59,5.64,8.69,6.94,1.19.38,2.82.78,4.3.78v.08s-.85,0-.85,0c-.18.11-.53-.01-.77.04-.45.1-1-.03-1.5.09-.42.09-1.07.02-1.42.08-1.37.24-2.92.13-4.21.46-.61.15-2.24.15-2.31.73.99.54,2.45.45,3.73.74.3.07.66.01.93.08.52.12,1.06,0,1.54.11.57.13,1.18,0,1.7.11.61.01,1.21.02,1.82.03.89.19,2.02-.06,2.92.15h1.17c.39.08.97-.07,1.42.03.5.1,1.35.03,2.02.03,1.08,0,2.16.02,3.24.03l3.77-.02c.6,0,1.38.08,1.9-.05h2.35c.59-.01,1.5.03,2.06-.1.38-.09.89.03,1.22-.04.31-.07.75.02,1.01-.04.6-.14,1.34.05,1.9-.09.61-.02,1.22-.03,1.82-.05.35-.08.78,0,1.17-.08,1.39-.32,2.92-.12,4.29-.46.64-.16,2.35-.16,2.43-.73-.87-.47-2.13-.44-3.24-.71-.31-.01-.62-.02-.93-.04-.74-.16-1.59-.04-2.39-.19-.5-.09-1.58-.12-2.15-.11-.62,0-1.33-.12-1.98-.11v-.04s-.04,0-.04,0c-.08-.48-.17-.96-.25-1.43-.11-.49-.02-1.02-.13-1.48-.1-.43-.05-1.54.03-1.91.12-.55-.02-1.04.12-1.56.27-1.04.51-2.04,1-2.84.28-.46.52-1.03.97-1.32v.16c-.11.15-.09.32-.16.52-.26.78-.4,1.66-.6,2.55-.07.3-.03,1.18.09,1.36.62-1.04,1.62-1.87,2.42-2.76,1.67-1.86,4.07-4.18,6.86-4.89.65-.17,1.4.02,1.9.15,1.09.28,2.08.35,3.12.67.4.12,1.33.4,1.9.27,1.01-.23,1.59-.75,2.39-1.17.36-.19,1.7-.61,1.82-.93.22-.23.26-.94.16-1.36Zm-24.68,15.89c-.35.12-1.48-.03-1.94-.03-1.59,0-3.19-.01-4.78-.02-.23-.58-1.63-.63-2.35-.79-.32-.07-.94.08-1.09-.16.59-.22,1.59-1.59,1.98-2.12,1.08-1.5,1.69-2.81,2.33-4.8.24-.74.48-2.02.23-2.99-.29-1.13-.6-1.97-1.02-2.91-.25-.55-.85-1.83-1.26-2.15v-.04s.08,0,.08,0c.29.38.76.65,1.06,1.03.69.9,1.31,1.92,1.71,3.1.23.68.24,1.43.41,2.19v.92c0,.75,0,1.41.17,2.03.63,2.26,1.85,3.86,3.22,5.37.41.45.82.98,1.34,1.31-.04.03-.01.01-.08.04Z"/>
      <path class="cls-2" d="m271.32,224.06c.73-.82,1.43-1.72,2.08-2.68,3.06-4.52,4.38-9.51,3.96-13.59,1.23,3.48.5,8.17-2.26,12.25-1.09,1.61-2.38,2.96-3.78,4.02Z"/>
      <path class="cls-2" d="m256.68,207.03c1.23-.4,2.53-.75,3.87-1.04,6.3-1.37,12.24-1.14,16.37.34-3.09-2-8.42-2.66-14.11-1.42-2.24.49-4.32,1.22-6.13,2.12Z"/>
    </g>
    <g>
      <text class="cls-4" transform="translate(355.71 309.88)"><tspan x="0" y="0">R</tspan></text>
      <circle class="cls-9" cx="357.59" cy="307.78" r="3.18"/>
    </g>
    <text class="cls-5" transform="translate(162.79 218.25) rotate(-63.3)"><tspan x="0" y="0"> </tspan></text>
    <text class="cls-5" transform="translate(164.76 214.33) rotate(-61.5)"><tspan x="0" y="0"> </tspan></text>
    <text class="cls-5" transform="translate(166.87 210.44) rotate(-59.69)"><tspan x="0" y="0"> </tspan></text>
    <text class="cls-5" transform="translate(169.08 206.65) rotate(-57.88)"><tspan x="0" y="0"> </tspan></text>
    <text class="cls-5" transform="translate(171.42 202.92) rotate(-56.02)"><tspan x="0" y="0"> </tspan></text>
    <text class="cls-5" transform="translate(173.87 199.29) rotate(-54.14)"><tspan x="0" y="0"> </tspan></text>
    <text class="cls-5" transform="translate(176.44 195.72) rotate(-52.2)"><tspan x="0" y="0"> </tspan></text>
    <text class="cls-5" transform="translate(178.99 192.25) rotate(-48.7)"><tspan x="0" y="0">T</tspan></text>
    <text class="cls-5" transform="translate(186.14 183.98) rotate(-42.82)"><tspan x="0" y="0">H</tspan></text>
    <text class="cls-5" transform="translate(195.94 174.93) rotate(-36.35)"><tspan x="0" y="0">E</tspan></text>
    <text class="cls-5" transform="translate(205.5 168.06) rotate(-32.02)"><tspan x="0" y="0"> </tspan></text>
    <text class="cls-5" transform="translate(209.01 165.65) rotate(-27.36)"><tspan x="0" y="0">B</tspan></text>
    <text class="cls-5" transform="translate(220.2 159.87) rotate(-20.67)"><tspan x="0" y="0">E</tspan></text>
    <text class="cls-5" transform="translate(231.09 155.74) rotate(-14.39)"><tspan x="0" y="0">S</tspan></text>
    <text class="cls-5" transform="translate(242.42 152.85) rotate(-8.6)"><tspan x="0" y="0">T</tspan></text>
    <text class="cls-5" transform="translate(253.36 151.3) rotate(-4.9)"><tspan x="0" y="0"> </tspan></text>
    <text class="cls-5" transform="translate(257.63 150.79) rotate(-1.06)"><tspan x="0" y="0">B</tspan></text>
    <text class="cls-5" transform="translate(270.28 150.56) rotate(4.09)"><tspan x="0" y="0">E</tspan></text>
    <text class="cls-5" transform="translate(281.98 151.38) rotate(9.36)"><tspan x="0" y="0">E</tspan></text>
    <text class="cls-5" transform="translate(293.53 153.24) rotate(15.16)"><tspan x="0" y="0">R</tspan></text>
    <text class="cls-5" transform="translate(305.75 156.7) rotate(19.34)"><tspan x="0" y="0"> </tspan></text>
    <text class="cls-5" transform="translate(309.85 157.99) rotate(23.36)"><tspan x="0" y="0">E</tspan></text>
    <text class="cls-5" transform="translate(320.59 162.6) rotate(29.27)"><tspan x="0" y="0">V</tspan></text>
    <text class="cls-5" transform="translate(331.12 168.49) rotate(35.05)"><tspan x="0" y="0">E</tspan></text>
    <text class="cls-5" transform="translate(340.73 175.2) rotate(40.73)"><tspan x="0" y="0">R</tspan></text>
    <text class="cls-10" transform="translate(234.9 350.55)"><tspan x="0" y="0">ES</tspan><tspan class="cls-12" x="18.68" y="0">T</tspan><tspan x="25.68" y="0">.2023</tspan></text>
    <path class="cls-11" d="m224.22,342.72l1.22-1.84c.18-.28.13-.64-.13-.81l-.29-.19c-.26-.17-.61-.08-.8.2l-1.22,1.84c-.63-.1-1.32.19-1.72.8l-3.55,5.37c-.2.31-.14.71.14.9l1.85,1.23c.28.19.67.09.87-.22l3.56-5.38c.4-.61.4-1.36.06-1.89Zm-3.7,7.06c-.19.29-.52.41-.74.27l-.13-.08c.21.14.54.02.74-.27l3.4-5.13c.37-.56.45-1.21.24-1.66-.08-.16-.19-.3-.34-.4l.13.08c.11.07.2.17.27.28.29.45.24,1.17-.17,1.79l-3.4,5.13Z"/>
    <path class="cls-11" d="m305.97,345.18l3.56,5.38c.2.31.59.4.87.22l1.85-1.23c.28-.19.35-.59.14-.9l-3.55-5.37c-.4-.61-1.09-.9-1.72-.8l-1.22-1.84c-.18-.28-.54-.37-.8-.2l-.29.19c-.26.17-.32.53-.13.81l1.22,1.84c-.34.54-.34,1.29.06,1.89Zm.24.04c-.41-.62-.46-1.34-.17-1.79.07-.11.16-.2.27-.28l.13-.08c-.15.1-.26.24-.34.4-.21.45-.13,1.1.24,1.66l3.4,5.13c.19.29.52.41.74.27l-.13.08c-.21.14-.54.02-.74-.27l-3.4-5.13Z"/>
  </g>
</svg>